<svg xmlns="http://www.w3.org/2000/svg" xmlns:xlink="http://www.w3.org/1999/xlink" width="1344" zoomAndPan="magnify" viewBox="0 0 1008 1295.99994" height="1728" preserveAspectRatio="xMidYMid meet" version="1.0"><defs><clipPath id="845590fe66"><path d="M 242 535 L 778 535 L 778 807 L 242 807 Z M 242 535 " clip-rule="nonzero"/></clipPath><clipPath id="8017bc29e3"><path d="M 195.117188 656.6875 L 488.933594 380.125 L 813.300781 724.730469 L 519.484375 1001.289062 Z M 195.117188 656.6875 " clip-rule="nonzero"/></clipPath><clipPath id="e20a8b427c"><path d="M 195.117188 656.6875 L 488.933594 380.125 L 813.300781 724.730469 L 519.484375 1001.289062 Z M 195.117188 656.6875 " clip-rule="nonzero"/></clipPath><clipPath id="129c1573ff"><path d="M 560 536 L 572 536 L 572 548 L 560 548 Z M 560 536 " clip-rule="nonzero"/></clipPath><clipPath id="d56171a056"><path d="M 195.117188 656.6875 L 488.933594 380.125 L 813.300781 724.730469 L 519.484375 1001.289062 Z M 195.117188 656.6875 " clip-rule="nonzero"/></clipPath><clipPath id="da4ac31c06"><path d="M 195.117188 656.6875 L 488.933594 380.125 L 813.300781 724.730469 L 519.484375 1001.289062 Z M 195.117188 656.6875 " clip-rule="nonzero"/></clipPath></defs><g clip-path="url(#845590fe66)"><g clip-path="url(#8017bc29e3)"><g clip-path="url(#e20a8b427c)"><path fill="#ff3131" d="M 642.273438 782.285156 C 637.945312 786.371094 632.882812 789.425781 628.9375 791.394531 C 626.96875 792.378906 625.285156 793.097656 624.121094 793.5625 C 624.050781 793.585938 624.007812 793.605469 623.941406 793.628906 L 622.722656 793.363281 C 610.636719 773.089844 620.585938 746.566406 644.113281 740.246094 C 645.023438 740.003906 645.585938 739.429688 645.871094 738.753906 L 646.058594 738.851562 C 649.003906 744.117188 650.789062 748.824219 651.722656 753 C 652.484375 756.445312 652.6875 759.53125 652.492188 762.34375 C 652.359375 764.191406 652.042969 765.921875 651.589844 767.566406 C 647.09375 765.796875 642.664062 763.980469 638.328125 762.195312 C 631.9375 759.570312 628.941406 769.882812 635.296875 772.492188 C 639.125 774.066406 642.988281 775.628906 646.867188 777.148438 C 645.496094 779 643.9375 780.714844 642.273438 782.285156 Z M 457.585938 757.875 C 450.40625 742.71875 448.878906 725.535156 453.492188 709.238281 C 454.429688 705.914062 449.289062 704.382812 448.34375 707.722656 C 443.761719 723.917969 444.785156 741.085938 451.09375 756.484375 L 391.378906 743.648438 C 385.21875 734.890625 381.519531 726.339844 379.691406 718.097656 C 378.222656 711.460938 377.949219 705.007812 378.617188 698.757812 C 379.625 689.386719 382.777344 680.441406 387.324219 672.300781 C 388.503906 670.191406 389.777344 668.136719 391.128906 666.140625 C 391.378906 666.285156 391.675781 666.378906 392.023438 666.398438 C 421.605469 668.195312 450.820312 673.152344 479.078125 681.195312 C 476.535156 685.382812 474.359375 689.855469 472.585938 694.582031 C 466.605469 710.519531 465.824219 728.121094 465.359375 744.945312 C 465.261719 748.410156 470.625 748.570312 470.71875 745.109375 C 471.144531 729.714844 472.050781 714.289062 476.585938 699.472656 C 478.417969 693.496094 481.027344 687.867188 484.308594 682.710938 C 532.90625 697.257812 578.503906 721.042969 618.007812 753.796875 C 611.292969 765.027344 609.960938 779.222656 615.84375 791.886719 Z M 395.828125 760.609375 C 392.242188 759.039062 388.675781 757.421875 385.136719 755.757812 C 385.183594 755.675781 385.234375 755.59375 385.277344 755.503906 L 386.21875 755.710938 L 400.386719 758.757812 C 398.886719 759.417969 397.359375 760.03125 395.828125 760.609375 Z M 378.167969 765.398438 C 379.964844 763.453125 381.605469 761.378906 383.066406 759.179688 C 385.464844 760.316406 387.882812 761.429688 390.304688 762.523438 C 386.328125 763.746094 382.277344 764.695312 378.167969 765.398438 Z M 354.25 766.523438 C 355.082031 765.789062 355.890625 765.042969 356.691406 764.277344 C 358.386719 765.132812 360.085938 765.972656 361.796875 766.796875 C 359.285156 766.800781 356.765625 766.707031 354.25 766.523438 Z M 255.960938 647.144531 C 258.113281 649.367188 260.28125 651.574219 262.464844 653.761719 C 260.003906 655.527344 257.554688 657.324219 255.136719 659.160156 C 255.164062 655.128906 255.453125 651.117188 255.960938 647.144531 Z M 325.507812 568.292969 C 326.824219 569.425781 328.148438 570.554688 329.472656 571.6875 C 322.410156 573.546875 315.441406 575.769531 308.601562 578.355469 C 307.570312 577.503906 306.539062 576.65625 305.511719 575.804688 C 309.410156 573.800781 313.417969 572.078125 317.523438 570.65625 C 320.152344 569.746094 322.816406 568.96875 325.507812 568.292969 Z M 404.230469 650.792969 C 411.71875 643.734375 419.898438 638.429688 426.984375 635.523438 C 430.519531 634.066406 433.777344 633.210938 436.421875 632.941406 C 437.746094 632.808594 438.910156 632.8125 439.882812 632.925781 C 440.792969 633.027344 441.515625 633.21875 442.09375 633.453125 L 496.394531 661.515625 C 490.53125 666.164062 485.492188 671.585938 481.324219 677.683594 C 452.921875 669.5 423.546875 664.414062 393.75 662.492188 C 396.96875 658.230469 400.515625 654.289062 404.230469 650.792969 Z M 370.757812 677.328125 C 368.667969 676.042969 366.585938 674.746094 364.515625 673.4375 C 368.765625 670.28125 373.023438 667.121094 377.28125 663.964844 C 374.777344 668.191406 372.566406 672.652344 370.757812 677.328125 Z M 366.347656 716.878906 C 366.492188 717.777344 366.664062 718.679688 366.847656 719.585938 C 365.425781 722.277344 363.898438 724.894531 362.265625 727.4375 C 356.640625 723.980469 351.082031 720.417969 345.59375 716.757812 C 351.394531 711.089844 357.203125 705.421875 363.003906 699.753906 C 363.847656 700.25 364.691406 700.75 365.539062 701.242188 C 365.257812 706.339844 365.476562 711.566406 366.347656 716.878906 Z M 370.695312 732.511719 C 369.03125 731.53125 367.378906 730.523438 365.726562 729.523438 C 366.601562 728.152344 367.449219 726.765625 368.261719 725.355469 C 368.945312 727.734375 369.753906 730.121094 370.695312 732.511719 Z M 344.953125 753.542969 C 348.285156 750.660156 351.441406 747.574219 354.402344 744.320312 C 357.539062 746.09375 360.699219 747.832031 363.875 749.535156 C 361.519531 753.058594 358.855469 756.367188 355.910156 759.421875 C 352.21875 757.53125 348.566406 755.570312 344.953125 753.542969 Z M 338.144531 764.027344 C 336.527344 763.488281 334.921875 762.917969 333.324219 762.328125 C 336.210938 760.433594 339 758.417969 341.683594 756.265625 C 345.386719 758.367188 349.140625 760.394531 352.925781 762.355469 C 351.570312 763.609375 350.160156 764.800781 348.703125 765.953125 C 345.171875 765.496094 341.644531 764.855469 338.144531 764.027344 Z M 260.367188 692.367188 C 265.15625 697.472656 270.097656 702.421875 275.175781 707.214844 C 273.070312 708.671875 270.976562 710.136719 268.882812 711.621094 C 265.371094 705.40625 262.535156 698.949219 260.367188 692.367188 Z M 255.417969 667.605469 C 259.535156 671.875 263.738281 676.058594 268.019531 680.152344 C 265.117188 681.851562 262.222656 683.570312 259.347656 685.320312 C 258.871094 684.796875 258.398438 684.261719 257.925781 683.734375 C 256.65625 678.394531 255.828125 673 255.417969 667.605469 Z M 277.347656 668.066406 C 277.179688 670.363281 277.070312 672.664062 277.027344 674.964844 C 275.226562 675.980469 273.425781 677.007812 271.632812 678.042969 C 266.515625 673.175781 261.507812 668.183594 256.628906 663.0625 C 259.492188 660.863281 262.398438 658.722656 265.332031 656.621094 C 269.273438 660.503906 273.289062 664.3125 277.347656 668.066406 Z M 280.902344 646.144531 C 280.367188 648.25 279.863281 650.363281 279.4375 652.503906 C 278.742188 655.992188 278.210938 659.496094 277.8125 663.011719 C 274.738281 660.128906 271.679688 657.222656 268.667969 654.269531 C 272.6875 651.472656 276.765625 648.757812 280.902344 646.144531 Z M 261.558594 625.210938 C 261.5 625.253906 261.441406 625.300781 261.382812 625.347656 C 261.410156 625.273438 261.4375 625.199219 261.464844 625.125 C 261.5 625.15625 261.527344 625.183594 261.558594 625.210938 Z M 278.125 613.734375 C 273.601562 616.59375 269.167969 619.601562 264.839844 622.773438 C 264.246094 622.234375 263.652344 621.699219 263.058594 621.15625 C 265.175781 616.277344 267.714844 611.566406 270.679688 607.070312 C 273.144531 609.308594 275.625 611.535156 278.125 613.734375 Z M 281.796875 595.332031 C 283.390625 594.425781 285 593.558594 286.617188 592.703125 C 290.257812 596.074219 293.941406 599.394531 297.664062 602.671875 C 292.230469 605.414062 286.902344 608.367188 281.691406 611.523438 C 278.765625 608.953125 275.859375 606.359375 272.980469 603.734375 C 275.089844 600.820312 277.398438 598.007812 279.886719 595.308594 C 280.402344 595.652344 281.082031 595.730469 281.796875 595.332031 Z M 313.492188 587.574219 C 309.765625 591.527344 306.257812 595.6875 303.019531 600.046875 C 302.53125 600.277344 302.042969 600.511719 301.554688 600.746094 C 297.800781 597.460938 294.089844 594.125 290.421875 590.738281 C 296.132812 587.867188 301.960938 585.265625 307.890625 582.949219 C 309.761719 584.492188 311.625 586.035156 313.492188 587.574219 Z M 316.28125 584.703125 C 314.921875 583.578125 313.554688 582.449219 312.191406 581.328125 C 316.164062 579.875 320.175781 578.550781 324.214844 577.347656 C 321.476562 579.699219 318.832031 582.148438 316.28125 584.703125 Z M 333.605469 569.964844 C 332.53125 569.042969 331.457031 568.121094 330.382812 567.203125 C 333.460938 566.601562 336.5625 566.148438 339.6875 565.847656 C 337.625 567.167969 335.59375 568.539062 333.605469 569.964844 Z M 423.496094 623.0625 C 422.558594 622.25 421.621094 621.4375 420.683594 620.625 C 423.09375 619.976562 425.515625 619.34375 427.941406 618.726562 C 428.753906 619.460938 429.566406 620.199219 430.382812 620.933594 C 430.355469 620.941406 430.328125 620.945312 430.296875 620.949219 C 428.0625 621.472656 425.792969 622.1875 423.496094 623.0625 Z M 412.84375 628.238281 C 410.695312 629.5 408.546875 630.890625 406.40625 632.402344 C 404.179688 630.488281 401.945312 628.574219 399.710938 626.660156 C 405.128906 624.996094 410.570312 623.410156 416.035156 621.894531 C 417.15625 622.863281 418.269531 623.832031 419.386719 624.800781 C 417.21875 625.804688 415.035156 626.960938 412.84375 628.238281 Z M 390.675781 646.164062 C 390.433594 645.960938 390.183594 645.757812 389.941406 645.554688 C 390.746094 645.175781 391.546875 644.804688 392.347656 644.429688 C 391.789062 645 391.226562 645.574219 390.675781 646.164062 Z M 378.832031 657.835938 C 376.769531 656.558594 374.71875 655.273438 372.671875 653.976562 C 377.082031 651.757812 381.511719 649.582031 385.960938 647.445312 C 386.644531 648.007812 387.324219 648.570312 388.003906 649.132812 C 386.648438 650.691406 385.332031 652.300781 384.054688 653.957031 C 382.3125 655.25 380.574219 656.542969 378.832031 657.835938 Z M 351.5 665.003906 C 357.128906 661.964844 362.78125 658.980469 368.484375 656.074219 C 370.765625 657.539062 373.050781 658.984375 375.351562 660.414062 C 370.535156 663.992188 365.714844 667.570312 360.894531 671.144531 C 357.746094 669.125 354.617188 667.078125 351.5 665.003906 Z M 344.242188 683.503906 C 340.257812 680.945312 336.316406 678.328125 332.394531 675.679688 C 337.402344 672.789062 342.4375 669.953125 347.507812 667.171875 C 350.804688 669.378906 354.109375 671.5625 357.441406 673.710938 C 353.042969 676.976562 348.640625 680.238281 344.242188 683.503906 Z M 325.328125 702.515625 C 331.683594 697.800781 338.042969 693.082031 344.398438 688.363281 C 349.363281 691.519531 354.371094 694.609375 359.421875 697.628906 C 353.679688 703.234375 347.941406 708.84375 342.199219 714.449219 C 336.5 710.582031 330.875 706.601562 325.328125 702.515625 Z M 331.046875 725.34375 C 324.675781 721.128906 318.417969 716.75 312.277344 712.203125 C 315.503906 709.8125 318.726562 707.417969 321.949219 705.027344 C 327.632812 709.238281 333.410156 713.335938 339.257812 717.320312 C 336.523438 719.996094 333.785156 722.671875 331.046875 725.34375 Z M 322.214844 739.59375 C 325.332031 736.546875 328.457031 733.5 331.578125 730.449219 C 337.882812 734.546875 344.300781 738.492188 350.8125 742.261719 C 347.8125 745.507812 344.613281 748.566406 341.226562 751.421875 C 334.761719 747.6875 328.414062 743.742188 322.214844 739.59375 Z M 313.167969 753.265625 C 312.472656 752.332031 311.78125 751.390625 311.109375 750.445312 C 313.839844 747.773438 316.570312 745.105469 319.300781 742.4375 C 325.378906 746.523438 331.585938 750.414062 337.914062 754.101562 C 334.957031 756.394531 331.878906 758.546875 328.675781 760.53125 C 323.371094 758.382812 318.199219 755.953125 313.167969 753.265625 Z M 284.542969 732.839844 C 284.53125 732.828125 284.523438 732.820312 284.515625 732.808594 C 285.652344 731.96875 286.78125 731.125 287.917969 730.28125 C 289.339844 733.640625 290.902344 736.941406 292.582031 740.175781 C 291.628906 739.46875 290.691406 738.742188 289.753906 738.007812 C 287.980469 736.355469 286.238281 734.636719 284.542969 732.839844 Z M 282.042969 713.511719 C 283.269531 717.894531 284.710938 722.21875 286.367188 726.457031 C 284.851562 727.582031 283.335938 728.707031 281.820312 729.832031 C 277.710938 725.136719 274.078125 720.191406 270.921875 715.058594 C 273.324219 713.355469 275.738281 711.667969 278.160156 709.992188 C 279.449219 711.175781 280.742188 712.347656 282.042969 713.511719 Z M 277.152344 683.207031 C 276.324219 682.453125 275.511719 681.6875 274.695312 680.921875 C 275.472656 680.480469 276.25 680.035156 277.027344 679.59375 C 277.046875 680.800781 277.09375 682.003906 277.152344 683.207031 Z M 304.25 660.519531 C 298.8125 663.230469 293.410156 666.019531 288.050781 668.898438 C 288.359375 664.425781 288.90625 659.960938 289.730469 655.535156 C 290.070312 653.726562 290.464844 651.9375 290.886719 650.15625 C 295.296875 653.671875 299.75 657.121094 304.25 660.519531 Z M 289.144531 623.226562 C 286.804688 628.210938 284.757812 633.332031 283.0625 638.589844 C 277.933594 634.316406 272.863281 629.957031 267.875 625.511719 C 272.238281 622.339844 276.707031 619.328125 281.269531 616.480469 C 283.878906 618.75 286.5 621 289.144531 623.226562 Z M 290.957031 619.511719 C 288.914062 617.78125 286.878906 616.039062 284.859375 614.285156 C 289.257812 611.644531 293.746094 609.15625 298.304688 606.820312 C 295.628906 610.917969 293.171875 615.148438 290.957031 619.511719 Z M 323.414062 595.773438 C 329.769531 601.019531 336.117188 606.265625 342.46875 611.515625 C 336.09375 613.84375 329.785156 616.359375 323.5625 619.074219 C 319.066406 615.515625 314.625 611.878906 310.234375 608.1875 C 312.886719 604.5 315.734375 600.949219 318.769531 597.554688 C 320.308594 596.945312 321.863281 596.351562 323.414062 595.773438 Z M 344.777344 584.820312 C 338.175781 586.550781 331.644531 588.558594 325.214844 590.851562 C 329.421875 586.78125 333.90625 583 338.621094 579.539062 C 340.671875 581.296875 342.726562 583.058594 344.777344 584.820312 Z M 388.476562 577.640625 C 385.734375 575.15625 382.984375 572.675781 380.238281 570.195312 C 386.019531 572.019531 391.695312 574.363281 397.195312 577.21875 C 394.285156 577.308594 391.378906 577.441406 388.476562 577.640625 Z M 411.433594 598.394531 C 415.082031 597.890625 418.742188 597.445312 422.410156 597.066406 C 427.207031 602.175781 431.996094 607.292969 436.789062 612.40625 C 434.199219 613.019531 431.609375 613.652344 429.03125 614.300781 C 423.167969 609 417.300781 603.695312 411.433594 598.394531 Z M 397.578125 600.605469 C 400.476562 600.074219 403.378906 599.597656 406.289062 599.148438 C 412.3125 604.597656 418.339844 610.042969 424.363281 615.496094 C 421.914062 616.132812 419.464844 616.785156 417.023438 617.449219 C 410.542969 611.835938 404.0625 606.222656 397.578125 600.605469 Z M 375.085938 605.539062 C 380.875 604.054688 386.710938 602.730469 392.578125 601.566406 C 399.175781 607.285156 405.78125 613.007812 412.382812 618.730469 C 406.933594 620.265625 401.503906 621.878906 396.101562 623.566406 C 389.097656 617.554688 382.089844 611.550781 375.085938 605.539062 Z M 366.761719 603.675781 C 360.054688 605.558594 353.417969 607.65625 346.84375 609.949219 C 340.488281 604.695312 334.132812 599.449219 327.78125 594.199219 C 334.585938 591.820312 341.503906 589.757812 348.503906 588.015625 C 354.59375 593.234375 360.675781 598.457031 366.761719 603.675781 Z M 371.703125 583.472656 C 377.402344 588.417969 383.101562 593.351562 388.800781 598.292969 C 382.972656 599.507812 377.179688 600.882812 371.429688 602.40625 C 365.390625 597.226562 359.355469 592.050781 353.316406 586.871094 C 359.394531 585.492188 365.527344 584.363281 371.703125 583.472656 Z M 372.921875 579.234375 C 369.320312 576.113281 365.722656 572.992188 362.113281 569.871094 C 365.730469 569.503906 369.359375 569.226562 372.996094 569.050781 C 376.324219 572.058594 379.652344 575.070312 382.984375 578.085938 C 379.621094 578.394531 376.269531 578.777344 372.921875 579.234375 Z M 402.496094 595.722656 C 399.578125 596.207031 396.667969 596.738281 393.765625 597.296875 C 388.179688 592.453125 382.59375 587.613281 377.007812 582.773438 C 380.359375 582.371094 383.71875 582.042969 387.082031 581.789062 C 392.21875 586.433594 397.359375 591.078125 402.496094 595.722656 Z M 413.804688 587.878906 C 415.539062 589.730469 417.269531 591.578125 419 593.425781 C 415.191406 593.863281 411.386719 594.363281 407.597656 594.925781 C 402.625 590.429688 397.648438 585.929688 392.671875 581.433594 C 396.46875 581.238281 400.273438 581.132812 404.085938 581.125 C 407.414062 583.179688 410.660156 585.429688 413.804688 587.878906 Z M 356.710938 570.484375 C 360.378906 573.65625 364.039062 576.832031 367.699219 580.003906 C 361.597656 580.976562 355.539062 582.1875 349.535156 583.632812 C 347.019531 581.46875 344.503906 579.308594 341.988281 577.152344 C 345.078125 575.035156 348.257812 573.058594 351.523438 571.222656 C 353.25 570.957031 354.980469 570.703125 356.710938 570.484375 Z M 372.753906 631.351562 C 365.304688 625.203125 357.863281 619.050781 350.417969 612.90625 C 357.007812 610.652344 363.667969 608.613281 370.394531 606.785156 C 377.460938 612.851562 384.535156 618.914062 391.605469 624.980469 C 385.289062 627 379 629.128906 372.753906 631.351562 Z M 355.015625 642.304688 C 360.640625 640.085938 366.300781 637.953125 371.996094 635.90625 C 375.515625 638.8125 379.035156 641.722656 382.558594 644.632812 C 377.929688 646.863281 373.320312 649.140625 368.734375 651.464844 C 364.117188 648.476562 359.546875 645.417969 355.015625 642.304688 Z M 332.324219 651.769531 C 338.351562 649.109375 344.425781 646.546875 350.53125 644.082031 C 355.175781 647.308594 359.863281 650.472656 364.605469 653.5625 C 358.945312 656.472656 353.324219 659.445312 347.734375 662.488281 C 342.546875 658.984375 337.40625 655.414062 332.324219 651.769531 Z M 294.484375 638.027344 C 296.996094 636.605469 299.519531 635.207031 302.066406 633.851562 C 309.367188 639.699219 316.792969 645.398438 324.335938 650.929688 C 318.941406 653.382812 313.589844 655.917969 308.265625 658.527344 C 302.769531 654.414062 297.347656 650.191406 291.988281 645.894531 C 292.730469 643.238281 293.554688 640.613281 294.484375 638.027344 Z M 298.714844 631.148438 C 298.0625 631.496094 297.414062 631.847656 296.761719 632.203125 C 297.035156 631.546875 297.300781 630.886719 297.589844 630.238281 C 297.960938 630.542969 298.339844 630.839844 298.714844 631.148438 Z M 302.566406 629.105469 C 301.488281 628.230469 300.402344 627.363281 299.328125 626.484375 C 301.832031 621.292969 304.71875 616.285156 307.9375 611.496094 C 311.726562 614.683594 315.558594 617.820312 319.433594 620.90625 C 313.738281 623.480469 308.113281 626.214844 302.566406 629.105469 Z M 327.121094 621.863281 C 333.339844 619.199219 339.636719 616.714844 346.007812 614.4375 C 353.464844 620.601562 360.921875 626.761719 368.378906 632.917969 C 362.566406 635.039062 356.789062 637.25 351.042969 639.542969 C 342.917969 633.855469 334.941406 627.957031 327.121094 621.863281 Z M 346.601562 641.335938 C 340.546875 643.808594 334.535156 646.375 328.5625 649.039062 C 320.902344 643.464844 313.355469 637.730469 305.949219 631.832031 C 311.53125 628.953125 317.1875 626.234375 322.925781 623.683594 C 330.667969 629.769531 338.558594 635.65625 346.601562 641.335938 Z M 311.921875 661.226562 C 317.277344 658.628906 322.667969 656.105469 328.09375 653.660156 C 333.269531 657.402344 338.496094 661.078125 343.773438 664.667969 C 338.726562 667.453125 333.707031 670.289062 328.71875 673.1875 C 323.054688 669.296875 317.457031 665.304688 311.921875 661.226562 Z M 305.523438 687.203125 C 299.863281 682.605469 294.3125 677.878906 288.847656 673.046875 C 295.128906 669.660156 301.464844 666.378906 307.859375 663.214844 C 313.472656 667.378906 319.152344 671.449219 324.902344 675.425781 C 318.382812 679.257812 311.925781 683.1875 305.523438 687.203125 Z M 308.816406 689.835938 C 315.332031 685.769531 321.898438 681.792969 328.527344 677.917969 C 332.582031 680.679688 336.675781 683.394531 340.796875 686.0625 C 334.519531 690.71875 328.246094 695.378906 321.964844 700.035156 C 317.527344 696.710938 313.148438 693.300781 308.816406 689.835938 Z M 294.96875 698.6875 C 298.363281 696.464844 301.777344 694.273438 305.207031 692.105469 C 309.617188 695.652344 314.070312 699.136719 318.59375 702.539062 C 315.378906 704.929688 312.160156 707.3125 308.945312 709.699219 C 304.210938 706.125 299.550781 702.453125 294.96875 698.6875 Z M 288.859375 693.566406 C 288.144531 688.234375 287.78125 682.859375 287.769531 677.476562 C 292.421875 681.558594 297.148438 685.546875 301.9375 689.460938 C 298.53125 691.625 295.140625 693.804688 291.761719 696.023438 C 290.792969 695.207031 289.824219 694.390625 288.859375 693.566406 Z M 295.449219 719.714844 C 295.339844 719.625 295.226562 719.527344 295.113281 719.4375 C 293.074219 713.683594 291.4375 707.789062 290.234375 701.808594 C 290.644531 701.535156 291.046875 701.261719 291.457031 700.992188 C 296.089844 704.820312 300.804688 708.554688 305.59375 712.1875 C 302.210938 714.699219 298.832031 717.207031 295.449219 719.714844 Z M 315.90625 740.128906 C 313.542969 742.441406 311.175781 744.753906 308.808594 747.066406 C 304.625 740.710938 301.03125 733.964844 298.042969 726.957031 C 303.855469 731.539062 309.8125 735.929688 315.90625 740.128906 Z M 298.65625 722.316406 C 302.078125 719.773438 305.503906 717.234375 308.925781 714.691406 C 315.207031 719.359375 321.609375 723.867188 328.128906 728.191406 C 325.027344 731.226562 321.917969 734.257812 318.808594 737.292969 C 311.910156 732.550781 305.1875 727.550781 298.65625 722.316406 Z M 402.394531 635.410156 C 397.074219 637.792969 391.78125 640.222656 386.519531 642.726562 C 383.136719 639.929688 379.75 637.136719 376.367188 634.339844 C 382.609375 632.148438 388.882812 630.050781 395.199219 628.0625 C 397.835938 630.324219 400.476562 632.585938 403.113281 634.847656 C 402.871094 635.035156 402.632812 635.21875 402.394531 635.410156 Z M 262.121094 688.339844 C 265.085938 686.546875 268.066406 684.777344 271.054688 683.03125 C 273.191406 685.03125 275.351562 687.011719 277.527344 688.972656 C 277.976562 694.039062 278.722656 699.082031 279.746094 704.0625 C 279.351562 704.332031 278.960938 704.609375 278.5625 704.878906 C 272.902344 699.558594 267.414062 694.042969 262.121094 688.339844 Z M 363.503906 732.882812 C 365.84375 734.296875 368.1875 735.699219 370.546875 737.074219 C 369.242188 740.21875 367.71875 743.25 366.003906 746.15625 C 363.007812 744.554688 360.03125 742.921875 357.082031 741.257812 C 359.347656 738.566406 361.496094 735.78125 363.503906 732.882812 Z M 353.511719 739.226562 C 347.074219 735.511719 340.730469 731.636719 334.496094 727.59375 C 337.21875 724.941406 339.933594 722.285156 342.652344 719.628906 C 348.371094 723.460938 354.164062 727.183594 360.03125 730.789062 C 357.996094 733.714844 355.820312 736.527344 353.511719 739.226562 Z M 368.867188 682.734375 C 368.101562 685.199219 367.460938 687.722656 366.9375 690.289062 C 365.425781 691.761719 363.914062 693.238281 362.402344 694.714844 C 357.511719 691.808594 352.667969 688.835938 347.863281 685.792969 C 352.257812 682.53125 356.652344 679.269531 361.050781 676.007812 C 363.8125 677.757812 366.585938 679.488281 369.371094 681.199219 C 369.199219 681.710938 369.027344 682.21875 368.867188 682.734375 Z M 441.839844 620.199219 C 441.671875 620.179688 441.507812 620.148438 441.34375 620.132812 C 439.144531 619.882812 436.902344 619.949219 434.632812 620.214844 C 434.667969 619.738281 434.492188 619.242188 434.007812 618.804688 C 433.546875 618.386719 433.085938 617.96875 432.621094 617.554688 C 434.839844 617.003906 437.058594 616.46875 439.285156 615.945312 C 440.167969 617.351562 441.023438 618.769531 441.839844 620.199219 Z M 301.726562 577.859375 C 302.601562 578.578125 303.472656 579.300781 304.347656 580.019531 C 298.871094 582.230469 293.480469 584.675781 288.191406 587.351562 C 292.476562 583.734375 297.007812 580.574219 301.726562 577.859375 Z M 259.058594 632.257812 C 260.882812 630.792969 262.714844 629.351562 264.574219 627.945312 C 269.808594 632.621094 275.132812 637.191406 280.519531 641.683594 C 275.527344 644.785156 270.621094 648.027344 265.800781 651.398438 C 262.738281 648.351562 259.71875 645.269531 256.734375 642.148438 C 257.339844 638.808594 258.109375 635.503906 259.058594 632.257812 Z M 371.566406 766.292969 C 371.164062 766.332031 370.761719 766.363281 370.359375 766.398438 C 366.75 764.765625 363.171875 763.066406 359.632812 761.304688 C 362.507812 758.230469 365.109375 754.917969 367.4375 751.410156 C 371.394531 753.476562 375.386719 755.484375 379.40625 757.433594 C 377.195312 760.695312 374.578125 763.667969 371.566406 766.292969 Z M 381.507812 754.019531 C 377.492188 752.082031 373.507812 750.089844 369.554688 748.03125 C 371.160156 745.300781 372.601562 742.472656 373.863281 739.546875 C 376.125 744.003906 378.871094 748.457031 382.128906 752.878906 C 381.929688 753.261719 381.71875 753.640625 381.507812 754.019531 Z M 620.234375 750.460938 C 580.648438 717.792969 535.164062 693.960938 486.667969 679.257812 C 490.828125 673.53125 495.863281 668.457031 501.640625 664.222656 L 640.230469 735.839844 C 631.863281 738.683594 625.058594 743.914062 620.234375 750.460938 Z M 670.976562 615.480469 C 639.601562 606.726562 607.097656 602.753906 575.925781 593.1875 C 561.492188 588.761719 542.484375 583.429688 534.058594 569.808594 C 530.917969 564.71875 529.539062 557.867188 532.410156 552.371094 C 534.773438 547.851562 541.164062 544.476562 546.0625 546.828125 C 552.230469 549.789062 557.890625 540.660156 551.640625 537.660156 C 541.058594 532.574219 529.363281 537.078125 523.242188 546.792969 C 516.375 557.695312 521.417969 572.003906 529.011719 580.949219 C 539.15625 592.898438 556.632812 598.246094 571.011719 602.894531 C 586.621094 607.933594 602.714844 611.363281 618.757812 614.679688 C 650.3125 621.210938 682.578125 627.167969 711.316406 642.453125 C 737.871094 656.582031 761.160156 680.65625 765.753906 711.34375 C 769.960938 739.476562 755.292969 768.070312 727.644531 776.929688 C 706.359375 783.753906 684.460938 779.28125 663.679688 772.0625 C 663.78125 771.734375 663.894531 771.417969 663.988281 771.082031 C 665.535156 765.519531 665.933594 759.238281 664.742188 752.472656 C 663.558594 745.699219 660.820312 738.460938 656.257812 730.734375 L 655.3125 729.140625 L 460 628.210938 C 454.511719 614.683594 446.441406 601.847656 435.761719 590.503906 C 426.984375 581.179688 417.101562 573.546875 406.550781 567.625 C 406.386719 566.800781 405.792969 566.054688 404.734375 565.941406 C 404.210938 565.882812 403.679688 565.839844 403.152344 565.789062 C 397.183594 562.6875 391.015625 560.121094 384.734375 558.105469 C 389.179688 555.25 386.613281 546.945312 380.566406 548.378906 C 374.96875 549.703125 369.496094 551.425781 364.160156 553.46875 C 361.441406 553.109375 358.714844 552.851562 355.988281 552.691406 C 341.511719 551.835938 327 553.742188 313.308594 558.488281 C 299.621094 563.234375 286.761719 570.832031 275.648438 581.292969 C 264.539062 591.75 256.179688 604.125 250.613281 617.503906 C 242.261719 637.574219 240.179688 659.871094 244.285156 681.511719 C 245.035156 685.46875 246 689.402344 247.164062 693.300781 C 246.671875 694.332031 247.160156 695.628906 248.054688 696.117188 C 253.40625 712.515625 262.441406 728.148438 275.167969 741.667969 C 286.042969 753.21875 298.609375 762.179688 312.046875 768.492188 C 317.191406 774.265625 322.835938 779.605469 328.9375 784.414062 C 333.785156 788.234375 338.71875 781.273438 335.863281 776.730469 C 342.167969 778.183594 348.546875 779.101562 354.9375 779.476562 C 369.414062 780.332031 383.925781 778.425781 397.617188 773.679688 C 405.324219 771.003906 412.761719 767.40625 419.78125 762.921875 L 624.742188 806.972656 L 626.386719 806.441406 C 626.617188 806.363281 629.988281 805.269531 634.703125 802.90625 C 639.414062 800.542969 645.488281 796.929688 651.097656 791.660156 C 654.074219 788.859375 656.910156 785.570312 659.285156 781.742188 C 679.484375 788.734375 700.3125 793.1875 721.976562 789.371094 C 749.386719 784.539062 769.476562 764.03125 775.320312 737.109375 C 781.480469 708.742188 770.585938 680.859375 751.5625 659.863281 C 730.464844 636.589844 700.664062 623.761719 670.976562 615.480469 " fill-opacity="1" fill-rule="nonzero"/></g></g></g><g clip-path="url(#129c1573ff)"><g clip-path="url(#d56171a056)"><g clip-path="url(#da4ac31c06)"><path fill="#ff3131" d="M 569.742188 545.65625 C 574.78125 540.910156 567.425781 533.097656 562.386719 537.84375 C 557.347656 542.585938 564.703125 550.398438 569.742188 545.65625 " fill-opacity="1" fill-rule="nonzero"/></g></g></g></svg>