<svg xmlns="http://www.w3.org/2000/svg" xmlns:xlink="http://www.w3.org/1999/xlink" width="1366" zoomAndPan="magnify" viewBox="0 0 1024.5 576" height="768" preserveAspectRatio="xMidYMid meet" version="1.0"><defs><clipPath id="c54224d687"><path d="M 359.15625 207.757812 L 601.40625 207.757812 L 601.40625 339.757812 L 359.15625 339.757812 Z M 359.15625 207.757812 " clip-rule="nonzero"/></clipPath></defs><g clip-path="url(#c54224d687)"><path fill="#ff383e" d="M 359.15625 207.859375 L 359.15625 242.128906 L 399.925781 273.757812 L 359.15625 305.390625 L 359.15625 339.65625 L 444.113281 273.757812 Z M 360.867188 306.179688 L 402.6875 273.757812 L 360.867188 241.207031 L 360.867188 211.289062 L 441.351562 273.628906 L 360.867188 336.097656 Z M 437.800781 207.859375 L 437.800781 242.128906 L 478.570312 273.757812 L 437.800781 305.390625 L 437.800781 339.65625 L 522.761719 273.757812 Z M 439.511719 306.179688 L 481.332031 273.757812 L 439.511719 241.207031 L 439.511719 211.289062 L 520 273.628906 L 439.511719 336.097656 Z M 516.449219 207.859375 L 516.449219 242.128906 L 557.21875 273.757812 L 516.449219 305.390625 L 516.449219 339.65625 L 601.40625 273.757812 Z M 518.15625 306.179688 L 559.980469 273.757812 L 518.15625 241.335938 L 518.15625 211.289062 L 598.644531 273.628906 L 518.15625 335.96875 Z M 518.15625 306.179688 " fill-opacity="1" fill-rule="nonzero"/></g></svg>