<svg xmlns="http://www.w3.org/2000/svg" xmlns:xlink="http://www.w3.org/1999/xlink" width="1366" zoomAndPan="magnify" viewBox="0 0 1024.5 576" height="768" preserveAspectRatio="xMidYMid meet" version="1.0"><defs><clipPath id="f9632043ba"><path d="M 359.460938 207.757812 L 601.40625 207.757812 L 601.40625 339.757812 L 359.460938 339.757812 Z M 359.460938 207.757812 " clip-rule="nonzero"/></clipPath></defs><g clip-path="url(#f9632043ba)"><path fill="#ff383e" d="M 601.710938 207.859375 L 601.710938 242.128906 L 560.941406 273.757812 L 601.710938 305.390625 L 601.710938 339.65625 L 516.753906 273.757812 Z M 600 306.179688 L 558.179688 273.757812 L 600 241.207031 L 600 211.289062 L 519.515625 273.628906 L 600 336.097656 Z M 523.066406 207.859375 L 523.066406 242.128906 L 482.296875 273.757812 L 523.066406 305.390625 L 523.066406 339.65625 L 438.105469 273.757812 Z M 521.355469 306.179688 L 479.535156 273.757812 L 521.355469 241.207031 L 521.355469 211.289062 L 440.867188 273.628906 L 521.355469 336.097656 Z M 444.417969 207.859375 L 444.417969 242.128906 L 403.648438 273.757812 L 444.417969 305.390625 L 444.417969 339.65625 L 359.460938 273.757812 Z M 442.710938 306.179688 L 400.886719 273.757812 L 442.710938 241.335938 L 442.710938 211.289062 L 362.222656 273.628906 L 442.710938 335.96875 Z M 442.710938 306.179688 " fill-opacity="1" fill-rule="nonzero"/></g></svg>