<svg xmlns="http://www.w3.org/2000/svg" xmlns:xlink="http://www.w3.org/1999/xlink" width="512" zoomAndPan="magnify" viewBox="0 0 384 383.999986" height="512" preserveAspectRatio="xMidYMid meet" version="1.0"><defs><clipPath id="37a566b4a0"><path d="M 0 90 L 381 90 L 381 284 L 0 284 Z M 0 90 " clip-rule="nonzero"/></clipPath><clipPath id="1ea144b115"><path d="M -33.871094 176.484375 L 175.292969 -20.398438 L 406.617188 225.355469 L 197.453125 422.238281 Z M -33.871094 176.484375 " clip-rule="nonzero"/></clipPath><clipPath id="0b522005da"><path d="M -33.871094 176.484375 L 175.292969 -20.398438 L 406.617188 225.355469 L 197.453125 422.238281 Z M -33.871094 176.484375 " clip-rule="nonzero"/></clipPath><clipPath id="ef54a582fd"><path d="M 226 90 L 235 90 L 235 99 L 226 99 Z M 226 90 " clip-rule="nonzero"/></clipPath><clipPath id="427c6624b9"><path d="M -33.871094 176.484375 L 175.292969 -20.398438 L 406.617188 225.355469 L 197.453125 422.238281 Z M -33.871094 176.484375 " clip-rule="nonzero"/></clipPath><clipPath id="1b517d1a3a"><path d="M -33.871094 176.484375 L 175.292969 -20.398438 L 406.617188 225.355469 L 197.453125 422.238281 Z M -33.871094 176.484375 " clip-rule="nonzero"/></clipPath></defs><g clip-path="url(#37a566b4a0)"><g clip-path="url(#1ea144b115)"><g clip-path="url(#0b522005da)"><path fill="#ff3131" d="M 284.796875 266.257812 C 281.714844 269.167969 278.109375 271.339844 275.300781 272.742188 C 273.898438 273.441406 272.703125 273.953125 271.871094 274.285156 C 271.824219 274.300781 271.789062 274.316406 271.742188 274.328125 L 270.875 274.140625 C 262.25 259.6875 269.324219 240.796875 286.082031 236.304688 C 286.730469 236.132812 287.128906 235.726562 287.332031 235.242188 L 287.46875 235.3125 C 289.570312 239.066406 290.84375 242.421875 291.511719 245.398438 C 292.058594 247.851562 292.203125 250.050781 292.066406 252.058594 C 291.972656 253.371094 291.746094 254.605469 291.425781 255.777344 C 288.222656 254.511719 285.066406 253.214844 281.972656 251.941406 C 277.417969 250.070312 275.292969 257.414062 279.820312 259.277344 C 282.550781 260.402344 285.300781 261.519531 288.066406 262.601562 C 287.09375 263.921875 285.984375 265.140625 284.796875 266.257812 Z M 153.195312 248.75 C 148.070312 237.945312 146.972656 225.699219 150.246094 214.089844 C 150.914062 211.722656 147.25 210.628906 146.578125 213.007812 C 143.324219 224.542969 144.066406 236.777344 148.570312 247.753906 L 106.015625 238.570312 C 101.621094 232.324219 98.980469 226.234375 97.671875 220.359375 C 96.621094 215.628906 96.421875 211.027344 96.894531 206.574219 C 97.605469 199.898438 99.847656 193.527344 103.082031 187.730469 C 103.921875 186.226562 104.828125 184.765625 105.789062 183.34375 C 105.96875 183.445312 106.179688 183.511719 106.425781 183.527344 C 127.503906 184.824219 148.320312 188.375 168.460938 194.125 C 166.652344 197.109375 165.101562 200.292969 163.84375 203.660156 C 159.589844 215.011719 159.046875 227.554688 158.726562 239.542969 C 158.660156 242.011719 162.480469 242.128906 162.546875 239.660156 C 162.839844 228.691406 163.472656 217.699219 166.699219 207.144531 C 167.996094 202.886719 169.851562 198.878906 172.1875 195.207031 C 206.824219 205.601562 239.324219 222.582031 267.492188 245.945312 C 262.714844 253.941406 261.773438 264.054688 265.972656 273.082031 Z M 109.195312 250.660156 C 106.640625 249.539062 104.097656 248.382812 101.574219 247.195312 C 101.609375 247.136719 101.644531 247.078125 101.675781 247.015625 L 102.347656 247.164062 L 112.441406 249.34375 C 111.371094 249.8125 110.285156 250.25 109.195312 250.660156 Z M 96.617188 254.058594 C 97.894531 252.675781 99.0625 251.199219 100.101562 249.632812 C 101.8125 250.445312 103.535156 251.238281 105.261719 252.019531 C 102.429688 252.890625 99.542969 253.5625 96.617188 254.058594 Z M 79.574219 254.847656 C 80.167969 254.328125 80.746094 253.796875 81.3125 253.25 C 82.523438 253.859375 83.734375 254.457031 84.953125 255.046875 C 83.164062 255.050781 81.367188 254.980469 79.574219 254.847656 Z M 9.472656 169.722656 C 11.007812 171.308594 12.550781 172.878906 14.109375 174.441406 C 12.355469 175.699219 10.613281 176.976562 8.894531 178.285156 C 8.910156 175.410156 9.113281 172.550781 9.472656 169.722656 Z M 58.972656 113.578125 C 59.914062 114.386719 60.855469 115.191406 61.796875 116 C 56.769531 117.320312 51.804688 118.898438 46.933594 120.738281 C 46.199219 120.132812 45.464844 119.523438 44.730469 118.917969 C 47.507812 117.492188 50.363281 116.269531 53.285156 115.257812 C 55.15625 114.609375 57.054688 114.058594 58.972656 113.578125 Z M 115.113281 172.414062 C 120.445312 167.390625 126.269531 163.613281 131.316406 161.550781 C 133.835938 160.511719 136.152344 159.90625 138.039062 159.714844 C 138.980469 159.621094 139.808594 159.625 140.503906 159.703125 C 141.152344 159.777344 141.667969 159.914062 142.082031 160.082031 L 180.785156 180.109375 C 176.613281 183.421875 173.023438 187.28125 170.058594 191.621094 C 149.816406 185.773438 128.886719 182.132812 107.65625 180.746094 C 109.945312 177.707031 112.46875 174.90625 115.113281 172.414062 Z M 91.28125 191.300781 C 89.789062 190.386719 88.308594 189.457031 86.832031 188.523438 C 89.859375 186.277344 92.890625 184.027344 95.917969 181.785156 C 94.140625 184.792969 92.566406 187.96875 91.28125 191.300781 Z M 88.164062 219.480469 C 88.269531 220.121094 88.390625 220.765625 88.523438 221.410156 C 87.511719 223.324219 86.425781 225.191406 85.261719 227.003906 C 81.25 224.535156 77.289062 221.996094 73.375 219.382812 C 77.507812 215.34375 81.640625 211.3125 85.769531 207.273438 C 86.371094 207.628906 86.972656 207.988281 87.578125 208.335938 C 87.378906 211.972656 87.542969 215.695312 88.164062 219.480469 Z M 91.273438 230.621094 C 90.085938 229.921875 88.90625 229.203125 87.730469 228.492188 C 88.351562 227.515625 88.953125 226.527344 89.535156 225.523438 C 90.023438 227.21875 90.597656 228.917969 91.273438 230.621094 Z M 72.941406 245.59375 C 75.316406 243.539062 77.5625 241.34375 79.671875 239.027344 C 81.90625 240.292969 84.160156 241.535156 86.421875 242.746094 C 84.746094 245.257812 82.851562 247.613281 80.753906 249.789062 C 78.121094 248.441406 75.519531 247.039062 72.941406 245.59375 Z M 68.097656 253.058594 C 66.949219 252.671875 65.800781 252.265625 64.664062 251.847656 C 66.71875 250.496094 68.703125 249.0625 70.613281 247.53125 C 73.253906 249.03125 75.929688 250.476562 78.628906 251.878906 C 77.664062 252.769531 76.660156 253.617188 75.625 254.4375 C 73.105469 254.109375 70.59375 253.652344 68.097656 253.058594 Z M 12.640625 201.949219 C 16.054688 205.589844 19.578125 209.121094 23.199219 212.535156 C 21.703125 213.574219 20.207031 214.617188 18.71875 215.671875 C 16.210938 211.242188 14.1875 206.640625 12.640625 201.949219 Z M 9.097656 184.300781 C 12.035156 187.347656 15.03125 190.328125 18.082031 193.25 C 16.015625 194.460938 13.953125 195.683594 11.910156 196.925781 C 11.570312 196.550781 11.230469 196.171875 10.894531 195.796875 C 9.988281 191.992188 9.394531 188.144531 9.097656 184.300781 Z M 24.722656 184.644531 C 24.605469 186.28125 24.527344 187.917969 24.496094 189.558594 C 23.214844 190.28125 21.933594 191.011719 20.65625 191.75 C 17.007812 188.277344 13.4375 184.71875 9.957031 181.066406 C 11.996094 179.5 14.066406 177.976562 16.15625 176.480469 C 18.964844 179.25 21.828125 181.964844 24.722656 184.644531 Z M 27.242188 169.023438 C 26.863281 170.523438 26.503906 172.03125 26.203125 173.554688 C 25.707031 176.039062 25.332031 178.535156 25.050781 181.042969 C 22.855469 178.984375 20.675781 176.914062 18.53125 174.808594 C 21.390625 172.816406 24.296875 170.882812 27.242188 169.023438 Z M 13.445312 154.097656 C 13.40625 154.128906 13.363281 154.160156 13.320312 154.195312 C 13.339844 154.140625 13.359375 154.089844 13.378906 154.035156 C 13.402344 154.054688 13.421875 154.078125 13.445312 154.097656 Z M 25.242188 145.929688 C 22.019531 147.964844 18.863281 150.105469 15.78125 152.359375 C 15.359375 151.976562 14.933594 151.59375 14.511719 151.207031 C 16.015625 147.734375 17.824219 144.375 19.933594 141.175781 C 21.691406 142.773438 23.460938 144.359375 25.242188 145.929688 Z M 27.84375 132.816406 C 28.980469 132.175781 30.128906 131.554688 31.277344 130.949219 C 33.875 133.351562 36.5 135.722656 39.15625 138.058594 C 35.285156 140.007812 31.492188 142.109375 27.78125 144.355469 C 25.695312 142.523438 23.625 140.671875 21.570312 138.796875 C 23.070312 136.722656 24.714844 134.722656 26.484375 132.800781 C 26.855469 133.042969 27.339844 133.101562 27.84375 132.816406 Z M 50.425781 127.3125 C 47.769531 130.125 45.273438 133.085938 42.972656 136.191406 C 42.621094 136.355469 42.273438 136.523438 41.925781 136.6875 C 39.25 134.34375 36.605469 131.964844 33.988281 129.550781 C 38.054688 127.507812 42.207031 125.660156 46.429688 124.011719 C 47.761719 125.113281 49.09375 126.210938 50.425781 127.3125 Z M 52.410156 125.265625 C 51.441406 124.460938 50.464844 123.660156 49.496094 122.859375 C 52.324219 121.824219 55.179688 120.886719 58.058594 120.03125 C 56.109375 121.703125 54.226562 123.445312 52.410156 125.265625 Z M 64.742188 114.777344 C 63.976562 114.117188 63.210938 113.460938 62.445312 112.804688 C 64.636719 112.378906 66.847656 112.058594 69.074219 111.84375 C 67.605469 112.785156 66.160156 113.757812 64.742188 114.777344 Z M 128.824219 152.667969 C 128.152344 152.085938 127.484375 151.507812 126.816406 150.925781 C 128.535156 150.46875 130.261719 150.019531 131.988281 149.582031 C 132.566406 150.105469 133.148438 150.628906 133.726562 151.15625 C 133.707031 151.160156 133.6875 151.160156 133.667969 151.164062 C 132.074219 151.535156 130.457031 152.042969 128.824219 152.667969 Z M 121.234375 156.347656 C 119.707031 157.246094 118.175781 158.234375 116.652344 159.3125 C 115.0625 157.945312 113.46875 156.582031 111.878906 155.214844 C 115.738281 154.035156 119.613281 152.90625 123.507812 151.828125 C 124.304688 152.519531 125.097656 153.210938 125.898438 153.902344 C 124.351562 154.617188 122.796875 155.4375 121.234375 156.347656 Z M 105.453125 169.105469 C 105.28125 168.960938 105.101562 168.816406 104.929688 168.671875 C 105.5 168.402344 106.070312 168.140625 106.644531 167.871094 C 106.246094 168.28125 105.847656 168.6875 105.453125 169.105469 Z M 97.023438 177.417969 C 95.550781 176.507812 94.089844 175.589844 92.628906 174.664062 C 95.773438 173.085938 98.925781 171.535156 102.09375 170.019531 C 102.582031 170.417969 103.066406 170.820312 103.550781 171.222656 C 102.585938 172.332031 101.648438 173.476562 100.738281 174.65625 C 99.5 175.578125 98.261719 176.496094 97.023438 177.417969 Z M 77.550781 182.507812 C 81.5625 180.34375 85.585938 178.222656 89.648438 176.15625 C 91.273438 177.199219 92.902344 178.230469 94.542969 179.25 C 91.113281 181.800781 87.683594 184.34375 84.25 186.890625 C 82.003906 185.449219 79.777344 183.988281 77.550781 182.507812 Z M 72.390625 195.6875 C 69.554688 193.859375 66.742188 191.992188 63.945312 190.101562 C 67.511719 188.046875 71.101562 186.027344 74.710938 184.050781 C 77.058594 185.625 79.414062 187.183594 81.792969 188.714844 C 78.660156 191.039062 75.527344 193.359375 72.390625 195.6875 Z M 58.929688 209.21875 C 63.457031 205.863281 67.984375 202.503906 72.507812 199.148438 C 76.046875 201.402344 79.617188 203.605469 83.21875 205.757812 C 79.128906 209.75 75.042969 213.742188 70.957031 217.734375 C 66.894531 214.976562 62.882812 212.136719 58.929688 209.21875 Z M 63.019531 225.488281 C 58.476562 222.484375 54.015625 219.359375 49.636719 216.113281 C 51.933594 214.414062 54.226562 212.710938 56.523438 211.007812 C 60.578125 214.011719 64.691406 216.9375 68.863281 219.777344 C 66.914062 221.683594 64.964844 223.585938 63.019531 225.488281 Z M 56.734375 235.640625 C 58.953125 233.46875 61.175781 231.300781 63.398438 229.128906 C 67.894531 232.054688 72.46875 234.867188 77.109375 237.558594 C 74.976562 239.871094 72.699219 242.046875 70.289062 244.078125 C 65.675781 241.414062 61.15625 238.597656 56.734375 235.640625 Z M 50.296875 245.375 C 49.800781 244.710938 49.308594 244.039062 48.828125 243.363281 C 50.773438 241.464844 52.71875 239.5625 54.660156 237.664062 C 58.992188 240.578125 63.417969 243.355469 67.929688 245.988281 C 65.824219 247.617188 63.628906 249.148438 61.347656 250.5625 C 57.570312 249.027344 53.882812 247.292969 50.296875 245.375 Z M 29.890625 230.804688 C 29.882812 230.792969 29.875 230.789062 29.871094 230.78125 C 30.679688 230.179688 31.484375 229.582031 32.292969 228.984375 C 33.308594 231.375 34.421875 233.730469 35.621094 236.035156 C 34.941406 235.53125 34.273438 235.011719 33.605469 234.488281 C 32.339844 233.308594 31.097656 232.085938 29.890625 230.804688 Z M 28.097656 217.027344 C 28.972656 220.152344 30.003906 223.234375 31.183594 226.257812 C 30.105469 227.058594 29.027344 227.855469 27.949219 228.65625 C 25.015625 225.308594 22.425781 221.785156 20.171875 218.125 C 21.882812 216.910156 23.601562 215.710938 25.328125 214.519531 C 26.246094 215.363281 27.167969 216.199219 28.097656 217.027344 Z M 24.589844 195.429688 C 24.003906 194.894531 23.421875 194.347656 22.839844 193.804688 C 23.394531 193.488281 23.949219 193.171875 24.5 192.855469 C 24.515625 193.714844 24.550781 194.574219 24.589844 195.429688 Z M 43.886719 179.28125 C 40.011719 181.210938 36.164062 183.195312 32.347656 185.242188 C 32.566406 182.054688 32.953125 178.875 33.539062 175.722656 C 33.777344 174.433594 34.058594 173.160156 34.355469 171.890625 C 37.5 174.398438 40.675781 176.859375 43.886719 179.28125 Z M 33.097656 152.699219 C 31.433594 156.25 29.980469 159.898438 28.773438 163.640625 C 25.117188 160.59375 21.503906 157.484375 17.945312 154.316406 C 21.050781 152.054688 24.234375 149.914062 27.484375 147.886719 C 29.34375 149.503906 31.214844 151.113281 33.097656 152.699219 Z M 34.386719 150.054688 C 32.929688 148.816406 31.480469 147.578125 30.039062 146.324219 C 33.171875 144.449219 36.367188 142.675781 39.617188 141.015625 C 37.710938 143.929688 35.964844 146.945312 34.386719 150.054688 Z M 57.5 133.160156 C 62.027344 136.902344 66.554688 140.644531 71.082031 144.386719 C 66.542969 146.042969 62.050781 147.832031 57.617188 149.761719 C 54.414062 147.222656 51.246094 144.628906 48.117188 141.996094 C 50.003906 139.367188 52.03125 136.839844 54.191406 134.425781 C 55.289062 133.992188 56.390625 133.570312 57.5 133.160156 Z M 72.710938 125.367188 C 68.007812 126.597656 63.355469 128.023438 58.777344 129.652344 C 61.773438 126.753906 64.964844 124.0625 68.324219 121.601562 C 69.785156 122.855469 71.25 124.109375 72.710938 125.367188 Z M 103.84375 120.28125 C 101.886719 118.507812 99.925781 116.738281 97.96875 114.96875 C 102.089844 116.273438 106.136719 117.945312 110.054688 119.984375 C 107.980469 120.046875 105.910156 120.140625 103.84375 120.28125 Z M 120.214844 135.082031 C 122.8125 134.726562 125.421875 134.410156 128.035156 134.140625 C 131.453125 137.789062 134.867188 141.433594 138.285156 145.082031 C 136.441406 145.515625 134.597656 145.96875 132.761719 146.425781 C 128.578125 142.644531 124.394531 138.863281 120.214844 135.082031 Z M 110.34375 136.648438 C 112.40625 136.273438 114.476562 135.933594 116.546875 135.613281 C 120.84375 139.503906 125.140625 143.386719 129.4375 147.273438 C 127.691406 147.726562 125.945312 148.191406 124.207031 148.664062 C 119.585938 144.660156 114.964844 140.652344 110.34375 136.648438 Z M 94.320312 140.148438 C 98.445312 139.097656 102.597656 138.15625 106.78125 137.328125 C 111.484375 141.410156 116.195312 145.492188 120.902344 149.574219 C 117.019531 150.664062 113.152344 151.808594 109.304688 153.007812 C 104.3125 148.722656 99.316406 144.4375 94.320312 140.148438 Z M 88.386719 138.816406 C 83.609375 140.152344 78.882812 141.644531 74.199219 143.273438 C 69.667969 139.527344 65.136719 135.785156 60.609375 132.039062 C 65.457031 130.347656 70.382812 128.882812 75.371094 127.648438 C 79.710938 131.367188 84.046875 135.09375 88.386719 138.816406 Z M 91.894531 124.425781 C 95.960938 127.949219 100.023438 131.472656 104.085938 134.996094 C 99.933594 135.859375 95.808594 136.832031 91.714844 137.914062 C 87.40625 134.222656 83.101562 130.527344 78.796875 126.832031 C 83.125 125.855469 87.496094 125.054688 91.894531 124.425781 Z M 92.761719 121.402344 C 90.195312 119.179688 87.628906 116.953125 85.054688 114.726562 C 87.632812 114.464844 90.21875 114.269531 92.808594 114.148438 C 95.179688 116.292969 97.554688 118.441406 99.929688 120.589844 C 97.535156 120.8125 95.144531 121.082031 92.761719 121.402344 Z M 113.84375 133.171875 C 111.765625 133.515625 109.691406 133.890625 107.625 134.289062 C 103.640625 130.835938 99.660156 127.382812 95.675781 123.929688 C 98.0625 123.644531 100.457031 123.414062 102.851562 123.234375 C 106.515625 126.546875 110.179688 129.859375 113.84375 133.171875 Z M 121.894531 127.589844 C 123.132812 128.910156 124.367188 130.230469 125.601562 131.546875 C 122.886719 131.855469 120.179688 132.210938 117.480469 132.609375 C 113.929688 129.398438 110.382812 126.191406 106.835938 122.984375 C 109.539062 122.847656 112.25 122.773438 114.964844 122.773438 C 117.339844 124.234375 119.652344 125.84375 121.894531 127.589844 Z M 81.207031 115.160156 C 83.820312 117.421875 86.429688 119.6875 89.042969 121.949219 C 84.695312 122.640625 80.378906 123.5 76.101562 124.523438 C 74.308594 122.980469 72.511719 121.441406 70.71875 119.902344 C 72.917969 118.394531 75.1875 116.988281 77.511719 115.683594 C 78.738281 115.496094 79.972656 115.316406 81.207031 115.160156 Z M 92.671875 158.542969 C 87.363281 154.15625 82.058594 149.765625 76.75 145.382812 C 81.445312 143.78125 86.1875 142.332031 90.976562 141.035156 C 96.015625 145.363281 101.058594 149.6875 106.101562 154.011719 C 101.601562 155.449219 97.125 156.960938 92.671875 158.542969 Z M 80.042969 166.335938 C 84.050781 164.757812 88.082031 163.242188 92.136719 161.785156 C 94.648438 163.859375 97.15625 165.933594 99.667969 168.011719 C 96.371094 169.597656 93.089844 171.21875 89.824219 172.871094 C 86.53125 170.738281 83.273438 168.558594 80.042969 166.335938 Z M 63.882812 173.066406 C 68.171875 171.171875 72.5 169.351562 76.851562 167.597656 C 80.160156 169.902344 83.503906 172.15625 86.882812 174.363281 C 82.851562 176.433594 78.847656 178.546875 74.871094 180.710938 C 71.167969 178.214844 67.503906 175.664062 63.882812 173.066406 Z M 36.910156 163.25 C 38.703125 162.238281 40.5 161.242188 42.3125 160.277344 C 47.519531 164.449219 52.8125 168.515625 58.191406 172.460938 C 54.347656 174.207031 50.535156 176.011719 46.746094 177.867188 C 42.824219 174.929688 38.960938 171.917969 35.140625 168.851562 C 35.664062 166.960938 36.253906 165.089844 36.910156 163.25 Z M 39.921875 158.347656 C 39.457031 158.597656 38.996094 158.847656 38.53125 159.101562 C 38.726562 158.632812 38.917969 158.164062 39.121094 157.699219 C 39.386719 157.917969 39.65625 158.132812 39.921875 158.347656 Z M 42.664062 156.894531 C 41.894531 156.273438 41.125 155.652344 40.355469 155.027344 C 42.140625 151.328125 44.191406 147.761719 46.480469 144.351562 C 49.183594 146.625 51.914062 148.863281 54.675781 151.066406 C 50.621094 152.894531 46.617188 154.839844 42.664062 156.894531 Z M 60.15625 151.75 C 64.585938 149.855469 69.070312 148.089844 73.609375 146.472656 C 78.925781 150.867188 84.242188 155.261719 89.558594 159.65625 C 85.417969 161.164062 81.304688 162.734375 77.210938 164.363281 C 71.417969 160.304688 65.730469 156.097656 60.15625 151.75 Z M 74.046875 165.640625 C 69.734375 167.398438 65.453125 169.222656 61.199219 171.117188 C 55.738281 167.140625 50.359375 163.050781 45.078125 158.839844 C 49.054688 156.792969 53.082031 154.863281 57.167969 153.046875 C 62.6875 157.386719 68.3125 161.585938 74.046875 165.640625 Z M 49.351562 179.792969 C 53.164062 177.941406 57.003906 176.148438 60.871094 174.410156 C 64.558594 177.078125 68.285156 179.703125 72.046875 182.261719 C 68.453125 184.246094 64.878906 186.261719 61.328125 188.324219 C 57.289062 185.546875 53.296875 182.699219 49.351562 179.792969 Z M 44.808594 198.296875 C 40.773438 195.015625 36.816406 191.648438 32.917969 188.199219 C 37.394531 185.789062 41.90625 183.457031 46.457031 181.203125 C 50.460938 184.175781 54.507812 187.082031 58.609375 189.917969 C 53.96875 192.644531 49.367188 195.4375 44.808594 198.296875 Z M 47.15625 200.175781 C 51.796875 197.28125 56.472656 194.453125 61.191406 191.695312 C 64.085938 193.667969 67.003906 195.605469 69.941406 197.503906 C 65.472656 200.820312 61.003906 204.136719 56.53125 207.449219 C 53.367188 205.078125 50.246094 202.644531 47.15625 200.175781 Z M 37.296875 206.472656 C 39.710938 204.890625 42.144531 203.332031 44.585938 201.789062 C 47.730469 204.320312 50.90625 206.804688 54.132812 209.234375 C 51.84375 210.933594 49.550781 212.628906 47.261719 214.328125 C 43.886719 211.78125 40.5625 209.160156 37.296875 206.472656 Z M 32.9375 202.820312 C 32.425781 199.019531 32.167969 195.1875 32.152344 191.355469 C 35.46875 194.265625 38.839844 197.113281 42.253906 199.902344 C 39.832031 201.441406 37.414062 202.996094 35.011719 204.574219 C 34.320312 203.992188 33.628906 203.40625 32.9375 202.820312 Z M 37.652344 221.457031 C 37.574219 221.390625 37.492188 221.324219 37.410156 221.261719 C 35.957031 217.160156 34.785156 212.957031 33.921875 208.695312 C 34.214844 208.5 34.503906 208.304688 34.792969 208.113281 C 38.097656 210.84375 41.460938 213.507812 44.875 216.101562 C 42.464844 217.886719 40.058594 219.671875 37.652344 221.457031 Z M 52.242188 236.015625 C 50.554688 237.664062 48.871094 239.308594 47.1875 240.953125 C 44.203125 236.425781 41.636719 231.613281 39.503906 226.617188 C 43.648438 229.890625 47.894531 233.019531 52.242188 236.015625 Z M 39.9375 223.3125 C 42.375 221.503906 44.816406 219.695312 47.25 217.886719 C 51.726562 221.21875 56.292969 224.429688 60.941406 227.519531 C 58.730469 229.675781 56.519531 231.835938 54.308594 233.996094 C 49.386719 230.613281 44.597656 227.046875 39.9375 223.3125 Z M 113.796875 161.449219 C 110.007812 163.144531 106.238281 164.875 102.488281 166.652344 C 100.078125 164.660156 97.664062 162.667969 95.253906 160.671875 C 99.695312 159.113281 104.167969 157.625 108.664062 156.210938 C 110.542969 157.824219 112.425781 159.4375 114.308594 161.050781 C 114.136719 161.183594 113.964844 161.316406 113.796875 161.449219 Z M 13.886719 199.078125 C 15.996094 197.804688 18.117188 196.542969 20.25 195.304688 C 21.773438 196.730469 23.3125 198.144531 24.863281 199.539062 C 25.1875 203.152344 25.722656 206.742188 26.453125 210.292969 C 26.171875 210.488281 25.894531 210.683594 25.609375 210.875 C 21.574219 207.082031 17.664062 203.148438 13.886719 199.078125 Z M 86.148438 230.882812 C 87.816406 231.890625 89.484375 232.890625 91.167969 233.875 C 90.242188 236.113281 89.160156 238.273438 87.9375 240.339844 C 85.800781 239.199219 83.679688 238.035156 81.578125 236.847656 C 83.1875 234.929688 84.71875 232.949219 86.148438 230.882812 Z M 79.03125 235.394531 C 74.441406 232.746094 69.921875 229.980469 65.476562 227.09375 C 67.414062 225.207031 69.347656 223.316406 71.285156 221.425781 C 75.359375 224.160156 79.488281 226.816406 83.671875 229.390625 C 82.222656 231.472656 80.675781 233.476562 79.03125 235.394531 Z M 89.9375 195.152344 C 89.394531 196.90625 88.9375 198.707031 88.570312 200.53125 C 87.492188 201.582031 86.414062 202.632812 85.339844 203.683594 C 81.855469 201.613281 78.398438 199.492188 74.972656 197.320312 C 78.105469 194.996094 81.234375 192.675781 84.363281 190.355469 C 86.332031 191.605469 88.308594 192.839844 90.296875 194.058594 C 90.175781 194.425781 90.050781 194.785156 89.9375 195.152344 Z M 141.890625 150.640625 C 141.769531 150.625 141.652344 150.601562 141.535156 150.589844 C 139.96875 150.410156 138.371094 150.457031 136.753906 150.644531 C 136.78125 150.304688 136.65625 149.949219 136.308594 149.640625 C 135.980469 149.339844 135.652344 149.042969 135.320312 148.746094 C 136.902344 148.355469 138.480469 147.976562 140.066406 147.605469 C 140.699219 148.605469 141.308594 149.621094 141.890625 150.640625 Z M 42.035156 120.378906 C 42.660156 120.894531 43.28125 121.40625 43.90625 121.921875 C 40.003906 123.492188 36.164062 125.234375 32.398438 127.136719 C 35.445312 124.5625 38.675781 122.3125 42.035156 120.378906 Z M 11.667969 159.113281 C 12.96875 158.074219 14.273438 157.046875 15.597656 156.046875 C 19.328125 159.378906 23.125 162.640625 26.964844 165.847656 C 23.410156 168.054688 19.917969 170.359375 16.484375 172.757812 C 14.300781 170.585938 12.148438 168.390625 10.019531 166.160156 C 10.449219 163.78125 10.996094 161.429688 11.667969 159.113281 Z M 91.914062 254.695312 C 91.625 254.722656 91.339844 254.746094 91.050781 254.769531 C 88.480469 253.601562 85.929688 252.390625 83.40625 251.132812 C 85.453125 248.945312 87.304688 246.585938 88.960938 244.085938 C 91.78125 245.5625 94.628906 246.996094 97.492188 248.386719 C 95.921875 250.707031 94.058594 252.828125 91.914062 254.695312 Z M 98.988281 245.953125 C 96.125 244.574219 93.285156 243.148438 90.46875 241.679688 C 91.609375 239.738281 92.636719 237.722656 93.535156 235.636719 C 95.148438 238.8125 97.105469 241.988281 99.429688 245.140625 C 99.289062 245.417969 99.140625 245.683594 98.988281 245.953125 Z M 269.074219 243.566406 C 240.851562 220.265625 208.429688 203.257812 173.867188 192.75 C 176.828125 188.671875 180.410156 185.058594 184.523438 182.042969 L 283.3125 233.164062 C 277.355469 235.183594 272.507812 238.90625 269.074219 243.566406 Z M 305.144531 147.417969 C 282.785156 141.160156 259.621094 138.308594 237.40625 131.476562 C 227.121094 128.3125 213.574219 124.5 207.566406 114.789062 C 205.320312 111.160156 204.335938 106.277344 206.378906 102.363281 C 208.058594 99.144531 212.609375 96.742188 216.101562 98.421875 C 220.5 100.535156 224.523438 94.035156 220.070312 91.890625 C 212.527344 88.261719 204.199219 91.460938 199.84375 98.382812 C 194.957031 106.148438 198.558594 116.34375 203.972656 122.722656 C 211.207031 131.246094 223.664062 135.066406 233.914062 138.386719 C 245.039062 141.988281 256.503906 144.441406 267.9375 146.816406 C 290.425781 151.488281 313.417969 155.753906 333.902344 166.664062 C 352.832031 176.746094 369.441406 193.917969 372.730469 215.785156 C 375.746094 235.835938 365.3125 256.203125 345.621094 262.496094 C 330.457031 267.34375 314.851562 264.144531 300.042969 258.988281 C 300.113281 258.753906 300.195312 258.527344 300.261719 258.289062 C 301.363281 254.328125 301.640625 249.851562 300.785156 245.03125 C 299.941406 240.203125 297.984375 235.042969 294.730469 229.535156 L 294.054688 228.398438 L 154.832031 156.355469 C 150.914062 146.714844 145.15625 137.5625 137.539062 129.472656 C 131.28125 122.824219 124.234375 117.378906 116.714844 113.152344 C 116.597656 112.566406 116.175781 112.035156 115.421875 111.953125 C 115.046875 111.910156 114.667969 111.878906 114.292969 111.84375 C 110.039062 109.628906 105.640625 107.796875 101.164062 106.355469 C 104.332031 104.324219 102.496094 98.40625 98.1875 99.421875 C 94.203125 100.363281 90.304688 101.585938 86.503906 103.039062 C 84.5625 102.78125 82.625 102.597656 80.679688 102.480469 C 70.367188 101.863281 60.027344 103.210938 50.277344 106.585938 C 40.523438 109.957031 31.367188 115.363281 23.457031 122.808594 C 15.546875 130.253906 9.597656 139.070312 5.640625 148.597656 C -0.296875 162.894531 -1.765625 178.777344 1.171875 194.203125 C 1.710938 197.023438 2.398438 199.824219 3.234375 202.605469 C 2.882812 203.339844 3.230469 204.265625 3.867188 204.613281 C 7.691406 216.300781 14.140625 227.445312 23.214844 237.085938 C 30.96875 245.324219 39.929688 251.71875 49.507812 256.222656 C 53.175781 260.339844 57.203125 264.148438 61.550781 267.578125 C 65.007812 270.308594 68.519531 265.347656 66.480469 262.109375 C 70.972656 263.148438 75.519531 263.804688 80.074219 264.078125 C 90.386719 264.695312 100.726562 263.347656 110.476562 259.972656 C 115.96875 258.074219 121.265625 255.515625 126.265625 252.324219 L 272.324219 283.839844 L 273.496094 283.460938 C 273.65625 283.40625 276.058594 282.628906 279.417969 280.949219 C 282.773438 279.269531 287.097656 276.695312 291.089844 272.945312 C 293.210938 270.949219 295.230469 268.609375 296.917969 265.882812 C 311.3125 270.878906 326.15625 274.066406 341.589844 271.359375 C 361.117188 267.933594 375.414062 253.332031 379.5625 234.152344 C 383.9375 213.941406 376.15625 194.070312 362.585938 179.097656 C 347.542969 162.5 326.300781 153.339844 305.144531 147.417969 " fill-opacity="1" fill-rule="nonzero"/></g></g></g><g clip-path="url(#ef54a582fd)"><g clip-path="url(#427c6624b9)"><g clip-path="url(#1b517d1a3a)"><path fill="#ff3131" d="M 232.972656 97.601562 C 236.558594 94.222656 231.316406 88.652344 227.726562 92.027344 C 224.140625 95.40625 229.382812 100.976562 232.972656 97.601562 " fill-opacity="1" fill-rule="nonzero"/></g></g></g></svg>